<svg aria-hidden="true" style="position: absolute; width: 0; height: 0; overflow: hidden;" version="1.1" xmlns="http://www.w3.org/2000/svg" xmlns:xlink="http://www.w3.org/1999/xlink">
<defs>
<symbol id="icon-arrow-down" viewBox="0 0 32 32">
<path stroke-linejoin="round" stroke-linecap="round" stroke-miterlimit="4" stroke-width="2.6667" d="M25.333 11.333l-9.333 9.333-9.333-9.333"></path>
</symbol>
<symbol id="icon-arrow-right" viewBox="0 0 32 32">
<path stroke-linejoin="round" stroke-linecap="round" stroke-miterlimit="4" stroke-width="2.6667" d="M11.333 6.667l9.333 9.333-9.333 9.333"></path>
</symbol>
<symbol id="icon-burger1" viewBox="0 0 42 32">
<path stroke-linejoin="miter" stroke-linecap="round" stroke-miterlimit="4" stroke-width="2.4" d="M1.2 2h39.2"></path>
<path stroke-linejoin="miter" stroke-linecap="round" stroke-miterlimit="4" stroke-width="2.4" d="M1.2 16.4h27.855"></path>
<path stroke-linejoin="miter" stroke-linecap="round" stroke-miterlimit="4" stroke-width="2.4" d="M1.2 30.8h18.4"></path>
</symbol>
<symbol id="icon-burger2" viewBox="0 0 32 32">
<path d="M29.333 6.333c0 0.552-0.448 1-1 1h-19.333c-0.552 0-1-0.448-1-1s0.448-1 1-1h19.333c0.552 0 1 0.448 1 1zM29.333 15.667c0 0.552-0.448 1-1 1h-19.333c-0.552 0-1-0.448-1-1s0.448-1 1-1h19.333c0.552 0 1 0.448 1 1zM28.333 26c0.552 0 1-0.448 1-1s-0.448-1-1-1h-19.333c-0.552 0-1 0.448-1 1s0.448 1 1 1h19.333z"></path>
<path d="M5.333 6.667c0 0.736-0.597 1.333-1.333 1.333s-1.333-0.597-1.333-1.333c0-0.736 0.597-1.333 1.333-1.333s1.333 0.597 1.333 1.333z"></path>
<path d="M5.333 16c0 0.736-0.597 1.333-1.333 1.333s-1.333-0.597-1.333-1.333c0-0.736 0.597-1.333 1.333-1.333s1.333 0.597 1.333 1.333z"></path>
<path d="M5.333 25.333c0 0.736-0.597 1.333-1.333 1.333s-1.333-0.597-1.333-1.333c0-0.736 0.597-1.333 1.333-1.333s1.333 0.597 1.333 1.333z"></path>
</symbol>
<symbol id="icon-buy" viewBox="0 0 32 32">
<path stroke-linejoin="round" stroke-linecap="round" stroke-miterlimit="4" stroke-width="2" d="M9.896 26.427c0.563 0 1.020 0.457 1.020 1.020s-0.457 1.019-1.020 1.019c-0.563 0-1.019-0.456-1.019-1.019s0.456-1.020 1.019-1.020z"></path>
<path stroke-linejoin="round" stroke-linecap="round" stroke-miterlimit="4" stroke-width="2" d="M24.9 26.427c0.563 0 1.020 0.457 1.020 1.020s-0.457 1.019-1.020 1.019c-0.563 0-1.020-0.456-1.020-1.019s0.457-1.020 1.020-1.020z"></path>
<path stroke-linejoin="round" stroke-linecap="round" stroke-miterlimit="4" stroke-width="2" d="M3.667 4.333l2.773 0.48 1.284 15.297c0.104 1.247 1.145 2.204 2.396 2.204h14.549c1.195 0 2.208-0.877 2.38-2.061l1.265-8.744c0.156-1.079-0.68-2.044-1.769-2.044h-19.66"></path>
<path stroke-linejoin="round" stroke-linecap="round" stroke-miterlimit="4" stroke-width="2" d="M18.834 14.393h3.697"></path>
</symbol>
<symbol id="icon-delivery-truck" viewBox="0 0 32 32">
<path stroke-linejoin="round" stroke-linecap="round" stroke-miterlimit="1.5" stroke-width="1.7778" d="M10.667 25.333c0.707 0 1.386-0.281 1.886-0.781s0.781-1.178 0.781-1.886c0-0.707-0.281-1.386-0.781-1.886s-1.178-0.781-1.886-0.781c-0.707 0-1.386 0.281-1.886 0.781s-0.781 1.178-0.781 1.886c0 0.707 0.281 1.386 0.781 1.886s1.178 0.781 1.886 0.781v0zM24 25.333c0.707 0 1.386-0.281 1.886-0.781s0.781-1.178 0.781-1.886c0-0.707-0.281-1.386-0.781-1.886s-1.178-0.781-1.886-0.781c-0.707 0-1.386 0.281-1.886 0.781s-0.781 1.178-0.781 1.886c0 0.707 0.281 1.386 0.781 1.886s1.178 0.781 1.886 0.781v0z"></path>
<path stroke-linejoin="miter" stroke-linecap="round" stroke-miterlimit="4" stroke-width="1.7778" d="M13.4 22.667h6.6v-13.867c0-0.212-0.084-0.416-0.234-0.566s-0.354-0.234-0.566-0.234h-17.867M7.533 22.667h-2.733c-0.105 0-0.209-0.021-0.306-0.061s-0.185-0.099-0.26-0.173-0.133-0.163-0.173-0.26c-0.040-0.097-0.061-0.201-0.061-0.306v-6.533"></path>
<path stroke-linejoin="round" stroke-linecap="round" stroke-miterlimit="4" stroke-width="1.7778" d="M2.667 12h5.333"></path>
<path stroke-linejoin="miter" stroke-linecap="round" stroke-miterlimit="4" stroke-width="1.7778" d="M20 12h7.48c0.155 0 0.306 0.045 0.436 0.129s0.232 0.204 0.295 0.346l2.387 5.371c0.046 0.102 0.069 0.212 0.069 0.324v3.697c0 0.105-0.021 0.209-0.061 0.306s-0.099 0.185-0.173 0.26-0.163 0.133-0.26 0.173c-0.097 0.040-0.201 0.061-0.306 0.061h-2.533M20 22.667h1.333"></path>
</symbol>
<symbol id="icon-discount" viewBox="0 0 32 32">
<path stroke-linejoin="round" stroke-linecap="round" stroke-miterlimit="4" stroke-width="1.7778" d="M6.392 9.408c0-1.665 1.351-3.016 3.015-3.016h1.372c0.795 0 1.559-0.315 2.124-0.876l0.959-0.96c1.175-1.18 3.084-1.185 4.264-0.011l0.012 0.011 0.96 0.96c0.564 0.561 1.328 0.876 2.124 0.876h1.371c1.665 0 3.016 1.351 3.016 3.016v1.369c0 0.797 0.315 1.56 0.876 2.125l0.96 0.96c1.18 1.175 1.187 3.083 0.012 4.264l-0.972 0.972c-0.561 0.563-0.876 1.328-0.876 2.123v1.372c0 1.665-1.351 3.015-3.016 3.015h-1.371c-0.796 0-1.56 0.316-2.124 0.877l-0.96 0.959c-1.173 1.181-3.083 1.187-4.264 0.012-0.004-0.004-0.008-0.008-0.012-0.012l-0.959-0.959c-0.565-0.561-1.329-0.877-2.124-0.877h-1.372c-1.664 0-3.015-1.349-3.015-3.015v-1.372c0-0.795-0.316-1.56-0.877-2.123l-0.959-0.96c-1.181-1.175-1.187-3.084-0.012-4.264l0.012-0.012 0.959-0.96c0.561-0.565 0.877-1.328 0.877-2.125v-1.369z"></path>
<path stroke-linejoin="round" stroke-linecap="round" stroke-miterlimit="4" stroke-width="1.7778" d="M12.573 19.426l6.853-6.853"></path>
<path d="M19.422 20.43c-0.267 0-0.52-0.107-0.707-0.293-0.093-0.093-0.16-0.213-0.213-0.333s-0.080-0.239-0.080-0.373c0-0.133 0.027-0.267 0.080-0.387s0.12-0.227 0.213-0.32c0.373-0.373 1.040-0.373 1.413 0 0.093 0.093 0.173 0.2 0.227 0.32 0.040 0.12 0.067 0.253 0.067 0.387 0 0.135-0.027 0.253-0.067 0.373-0.053 0.12-0.133 0.24-0.227 0.333-0.187 0.187-0.44 0.293-0.707 0.293z"></path>
<path d="M12.569 13.577c-0.133 0-0.253-0.028-0.373-0.081s-0.24-0.119-0.333-0.212c-0.093-0.107-0.16-0.213-0.213-0.333-0.053-0.121-0.080-0.24-0.080-0.373 0-0.135 0.027-0.267 0.080-0.387s0.12-0.24 0.213-0.32c0.387-0.375 1.040-0.375 1.413 0 0.187 0.185 0.293 0.44 0.293 0.707 0 0.133-0.013 0.252-0.067 0.373-0.053 0.12-0.133 0.227-0.227 0.333-0.093 0.093-0.2 0.159-0.32 0.212s-0.253 0.081-0.387 0.081z"></path>
</symbol>
<symbol id="icon-location" viewBox="0 0 32 32">
<path stroke-linejoin="round" stroke-linecap="round" stroke-miterlimit="4" stroke-width="1.7778" d="M5.652 13.855c0.019-5.654 4.618-10.222 10.272-10.203s10.222 4.618 10.203 10.273v0.116c-0.070 3.675-2.122 7.072-4.638 9.728-1.439 1.494-3.046 2.817-4.788 3.942-0.466 0.403-1.157 0.403-1.623 0-2.598-1.691-4.878-3.826-6.736-6.307-1.656-2.164-2.596-4.79-2.69-7.513v-0.035z"></path>
<path stroke-linejoin="round" stroke-linecap="round" stroke-miterlimit="4" stroke-width="1.7778" d="M15.89 17.333c1.812 0 3.281-1.469 3.281-3.281s-1.469-3.281-3.281-3.281c-1.812 0-3.281 1.469-3.281 3.281s1.469 3.281 3.281 3.281z"></path>
</symbol>
<symbol id="icon-search" viewBox="0 0 32 32">
<path stroke-linejoin="round" stroke-linecap="round" stroke-miterlimit="4" stroke-width="2.6667" d="M15.689 27.674c6.619 0 11.985-5.366 11.985-11.985s-5.366-11.985-11.985-11.985c-6.619 0-11.985 5.366-11.985 11.985s5.366 11.985 11.985 11.985z"></path>
<path stroke-linejoin="round" stroke-linecap="round" stroke-miterlimit="4" stroke-width="2.6667" d="M24.024 24.647l4.699 4.686"></path>
</symbol>
</defs>
</svg>
