<svg aria-hidden="true" style="position: absolute; width: 0; height: 0; overflow: hidden;" version="1.1" xmlns="http://www.w3.org/2000/svg" xmlns:xlink="http://www.w3.org/1999/xlink">
<defs>
<symbol id="icon-arrow-down" viewBox="0 0 32 32">
<path stroke-linejoin="round" stroke-linecap="round" stroke-miterlimit="4" stroke-width="2.6667" d="M25.333 11.333l-9.333 9.333-9.333-9.333"></path>
</symbol>
<symbol id="icon-arrow-right" viewBox="0 0 32 32">
<path stroke-linejoin="round" stroke-linecap="round" stroke-miterlimit="4" stroke-width="2.6667" d="M11.333 6.667l9.333 9.333-9.333 9.333"></path>
</symbol>
<symbol id="icon-burger1" viewBox="0 0 42 32">
<path stroke-linejoin="miter" stroke-linecap="round" stroke-miterlimit="4" stroke-width="2.4" d="M1.2 2h39.2"></path>
<path stroke-linejoin="miter" stroke-linecap="round" stroke-miterlimit="4" stroke-width="2.4" d="M1.2 16.4h27.855"></path>
<path stroke-linejoin="miter" stroke-linecap="round" stroke-miterlimit="4" stroke-width="2.4" d="M1.2 30.8h18.4"></path>
</symbol>
<symbol id="icon-burger2" viewBox="0 0 32 32">
<path d="M29.333 6.333c0 0.552-0.448 1-1 1h-19.333c-0.552 0-1-0.448-1-1s0.448-1 1-1h19.333c0.552 0 1 0.448 1 1zM29.333 15.667c0 0.552-0.448 1-1 1h-19.333c-0.552 0-1-0.448-1-1s0.448-1 1-1h19.333c0.552 0 1 0.448 1 1zM28.333 26c0.552 0 1-0.448 1-1s-0.448-1-1-1h-19.333c-0.552 0-1 0.448-1 1s0.448 1 1 1h19.333z"></path>
<path d="M5.333 6.667c0 0.736-0.597 1.333-1.333 1.333s-1.333-0.597-1.333-1.333c0-0.736 0.597-1.333 1.333-1.333s1.333 0.597 1.333 1.333z"></path>
<path d="M5.333 16c0 0.736-0.597 1.333-1.333 1.333s-1.333-0.597-1.333-1.333c0-0.736 0.597-1.333 1.333-1.333s1.333 0.597 1.333 1.333z"></path>
<path d="M5.333 25.333c0 0.736-0.597 1.333-1.333 1.333s-1.333-0.597-1.333-1.333c0-0.736 0.597-1.333 1.333-1.333s1.333 0.597 1.333 1.333z"></path>
</symbol>
<symbol id="icon-buy" viewBox="0 0 32 32">
<path stroke-linejoin="round" stroke-linecap="round" stroke-miterlimit="4" stroke-width="2" d="M9.896 26.427c0.563 0 1.020 0.457 1.020 1.020s-0.457 1.019-1.020 1.019c-0.563 0-1.019-0.456-1.019-1.019s0.456-1.020 1.019-1.020z"></path>
<path stroke-linejoin="round" stroke-linecap="round" stroke-miterlimit="4" stroke-width="2" d="M24.9 26.427c0.563 0 1.020 0.457 1.020 1.020s-0.457 1.019-1.020 1.019c-0.563 0-1.020-0.456-1.020-1.019s0.457-1.020 1.020-1.020z"></path>
<path stroke-linejoin="round" stroke-linecap="round" stroke-miterlimit="4" stroke-width="2" d="M3.667 4.333l2.773 0.48 1.284 15.297c0.104 1.247 1.145 2.204 2.396 2.204h14.549c1.195 0 2.208-0.877 2.38-2.061l1.265-8.744c0.156-1.079-0.68-2.044-1.769-2.044h-19.66"></path>
<path stroke-linejoin="round" stroke-linecap="round" stroke-miterlimit="4" stroke-width="2" d="M18.834 14.393h3.697"></path>
</symbol>
<symbol id="icon-delivery-truck" viewBox="0 0 32 32">
<path stroke-linejoin="round" stroke-linecap="round" stroke-miterlimit="1.5" stroke-width="1.7778" d="M10.667 25.333c0.707 0 1.386-0.281 1.886-0.781s0.781-1.178 0.781-1.886c0-0.707-0.281-1.386-0.781-1.886s-1.178-0.781-1.886-0.781c-0.707 0-1.386 0.281-1.886 0.781s-0.781 1.178-0.781 1.886c0 0.707 0.281 1.386 0.781 1.886s1.178 0.781 1.886 0.781v0zM24 25.333c0.707 0 1.386-0.281 1.886-0.781s0.781-1.178 0.781-1.886c0-0.707-0.281-1.386-0.781-1.886s-1.178-0.781-1.886-0.781c-0.707 0-1.386 0.281-1.886 0.781s-0.781 1.178-0.781 1.886c0 0.707 0.281 1.386 0.781 1.886s1.178 0.781 1.886 0.781v0z"></path>
<path stroke-linejoin="miter" stroke-linecap="round" stroke-miterlimit="4" stroke-width="1.7778" d="M13.4 22.667h6.6v-13.867c0-0.212-0.084-0.416-0.234-0.566s-0.354-0.234-0.566-0.234h-17.867M7.533 22.667h-2.733c-0.105 0-0.209-0.021-0.306-0.061s-0.185-0.099-0.26-0.173-0.133-0.163-0.173-0.26c-0.040-0.097-0.061-0.201-0.061-0.306v-6.533"></path>
<path stroke-linejoin="round" stroke-linecap="round" stroke-miterlimit="4" stroke-width="1.7778" d="M2.667 12h5.333"></path>
<path stroke-linejoin="miter" stroke-linecap="round" stroke-miterlimit="4" stroke-width="1.7778" d="M20 12h7.48c0.155 0 0.306 0.045 0.436 0.129s0.232 0.204 0.295 0.346l2.387 5.371c0.046 0.102 0.069 0.212 0.069 0.324v3.697c0 0.105-0.021 0.209-0.061 0.306s-0.099 0.185-0.173 0.26-0.163 0.133-0.26 0.173c-0.097 0.040-0.201 0.061-0.306 0.061h-2.533M20 22.667h1.333"></path>
</symbol>
<symbol id="icon-discount" viewBox="0 0 32 32">
<path stroke-linejoin="round" stroke-linecap="round" stroke-miterlimit="4" stroke-width="1.7778" d="M6.392 9.408c0-1.665 1.351-3.016 3.015-3.016h1.372c0.795 0 1.559-0.315 2.124-0.876l0.959-0.96c1.175-1.18 3.084-1.185 4.264-0.011l0.012 0.011 0.96 0.96c0.564 0.561 1.328 0.876 2.124 0.876h1.371c1.665 0 3.016 1.351 3.016 3.016v1.369c0 0.797 0.315 1.56 0.876 2.125l0.96 0.96c1.18 1.175 1.187 3.083 0.012 4.264l-0.972 0.972c-0.561 0.563-0.876 1.328-0.876 2.123v1.372c0 1.665-1.351 3.015-3.016 3.015h-1.371c-0.796 0-1.56 0.316-2.124 0.877l-0.96 0.959c-1.173 1.181-3.083 1.187-4.264 0.012-0.004-0.004-0.008-0.008-0.012-0.012l-0.959-0.959c-0.565-0.561-1.329-0.877-2.124-0.877h-1.372c-1.664 0-3.015-1.349-3.015-3.015v-1.372c0-0.795-0.316-1.56-0.877-2.123l-0.959-0.96c-1.181-1.175-1.187-3.084-0.012-4.264l0.012-0.012 0.959-0.96c0.561-0.565 0.877-1.328 0.877-2.125v-1.369z"></path>
<path stroke-linejoin="round" stroke-linecap="round" stroke-miterlimit="4" stroke-width="1.7778" d="M12.573 19.426l6.853-6.853"></path>
<path d="M19.422 20.43c-0.267 0-0.52-0.107-0.707-0.293-0.093-0.093-0.16-0.213-0.213-0.333s-0.080-0.239-0.080-0.373c0-0.133 0.027-0.267 0.080-0.387s0.12-0.227 0.213-0.32c0.373-0.373 1.040-0.373 1.413 0 0.093 0.093 0.173 0.2 0.227 0.32 0.040 0.12 0.067 0.253 0.067 0.387 0 0.135-0.027 0.253-0.067 0.373-0.053 0.12-0.133 0.24-0.227 0.333-0.187 0.187-0.44 0.293-0.707 0.293z"></path>
<path d="M12.569 13.577c-0.133 0-0.253-0.028-0.373-0.081s-0.24-0.119-0.333-0.212c-0.093-0.107-0.16-0.213-0.213-0.333-0.053-0.121-0.080-0.24-0.080-0.373 0-0.135 0.027-0.267 0.080-0.387s0.12-0.24 0.213-0.32c0.387-0.375 1.040-0.375 1.413 0 0.187 0.185 0.293 0.44 0.293 0.707 0 0.133-0.013 0.252-0.067 0.373-0.053 0.12-0.133 0.227-0.227 0.333-0.093 0.093-0.2 0.159-0.32 0.212s-0.253 0.081-0.387 0.081z"></path>
</symbol>
<symbol id="icon-location" viewBox="0 0 32 32">
<path stroke-linejoin="round" stroke-linecap="round" stroke-miterlimit="4" stroke-width="1.7778" d="M5.652 13.855c0.019-5.654 4.618-10.222 10.272-10.203s10.222 4.618 10.203 10.273v0.116c-0.070 3.675-2.122 7.072-4.638 9.728-1.439 1.494-3.046 2.817-4.788 3.942-0.466 0.403-1.157 0.403-1.623 0-2.598-1.691-4.878-3.826-6.736-6.307-1.656-2.164-2.596-4.79-2.69-7.513v-0.035z"></path>
<path stroke-linejoin="round" stroke-linecap="round" stroke-miterlimit="4" stroke-width="1.7778" d="M15.89 17.333c1.812 0 3.281-1.469 3.281-3.281s-1.469-3.281-3.281-3.281c-1.812 0-3.281 1.469-3.281 3.281s1.469 3.281 3.281 3.281z"></path>
</symbol>
<symbol id="icon-search" viewBox="0 0 32 32">
<path stroke-linejoin="round" stroke-linecap="round" stroke-miterlimit="4" stroke-width="2.6667" d="M15.689 27.674c6.619 0 11.985-5.366 11.985-11.985s-5.366-11.985-11.985-11.985c-6.619 0-11.985 5.366-11.985 11.985s5.366 11.985 11.985 11.985z"></path>
<path stroke-linejoin="round" stroke-linecap="round" stroke-miterlimit="4" stroke-width="2.6667" d="M24.024 24.647l4.699 4.686"></path>
</symbol>
<symbol id="icon-MegaMart" viewBox="0 0 158 32">
<path d="M18.757 0.135l-6.441 16.98-6.441-16.98h-5.874v23.873h4.191v-17.825l6.012 15.747h4.225l6.012-15.747v17.825h4.191v-23.873h-5.874z"></path>
<path d="M37.324 24.346c2.886 0 5.17-0.997 7.042-3.041l-2.886-2.484c-1.202 1.318-2.576 1.791-4.122 1.791-2.697 0-3.934-1.487-4.294-3.7h11.783c0.086-0.237 0.154-0.929 0.154-1.622 0-3.768-1.941-8.515-7.953-8.515-5.806 0-8.416 4.46-8.416 8.853 0 4.545 2.783 8.718 8.691 8.718zM33.065 13.939c0.395-2.112 1.477-3.7 3.951-3.7 1.821 0 3.298 0.895 3.727 2.636 0.103 0.338 0.138 0.693 0.138 1.064h-7.815z"></path>
<path d="M56.408 21.373c-3.057-0.372-5.17-0.405-5.17-1.791 0-0.389 0.155-0.676 0.498-0.895 0.979 0.422 2.078 0.659 3.264 0.659 3.762 0 6.974-2.399 6.974-6.167 0-1.098-0.258-2.095-0.739-2.94l2.491-1.977-2.181-2.619-2.628 2.213c-1.151-0.693-2.559-1.081-4.054-1.081-3.796 0-7.042 2.534-7.042 6.201 0 1.487 0.532 2.822 1.426 3.886-1.013 0.878-1.597 1.96-1.597 3.447 0 1.622 0.687 2.636 1.683 3.295l-1.993 1.656c-0.034 0.169-0.069 0.338-0.069 0.727 0 3.464 2.817 6.015 8.228 6.015 4.26 0 7.592-1.825 7.592-5.643 0-3.869-3.435-4.562-6.682-4.984zM54.999 9.968c1.838 0 2.817 1.267 2.817 3.041 0 1.723-0.945 2.974-2.817 2.974-1.855 0-2.851-1.25-2.851-2.974 0-1.774 1.030-3.041 2.851-3.041zM55.463 28.824c-2.078 0-3.865-0.591-4.363-2.281l-0.103-0.456 0.928-1.521c1.048 0.203 2.113 0.287 3.006 0.372 2.851 0.287 4.191 0.591 4.191 1.875 0 1.352-1.443 2.011-3.659 2.011z"></path>
<path d="M72.76 6.775c-3.384 0-5.565 1.487-7.214 3.7l3.212 2.281c0.739-1.233 2.061-2.382 4.036-2.382 2.731 0 3.487 1.064 3.573 3.565h-4.655c-3.848 0-6.836 1.216-6.836 4.883 0 3.531 2.714 5.525 6.235 5.525 1.958 0 4.243-0.845 5.359-2.585l0.258 2.247h3.452v-10.239c0-4.123-2.748-6.995-7.42-6.995zM71.952 20.866c-1.872 0-2.783-0.794-2.783-1.909 0-1.064 0.876-2.044 2.783-2.044h4.432v0.135c-0.258 1.994-1.855 3.818-4.432 3.818z"></path>
<path d="M104.055 0.135l-6.441 16.98-6.441-16.98h-5.874v23.873h4.191v-17.825l6.012 15.747h4.225l6.012-15.747v17.825h4.191v-23.873h-5.874z"></path>
<path d="M121.816 6.775c-3.384 0-5.566 1.487-7.215 3.7l3.213 2.281c0.738-1.233 2.061-2.382 4.037-2.382 2.73 0 3.487 1.064 3.573 3.565h-4.655c-3.848 0-6.837 1.216-6.837 4.883 0 3.531 2.714 5.525 6.235 5.525 1.958 0 4.242-0.845 5.359-2.585l0.257 2.247h3.453v-10.239c0-4.123-2.747-6.995-7.419-6.995zM121.008 20.866c-1.872 0-2.783-0.794-2.783-1.909 0-1.064 0.877-2.044 2.783-2.044h4.432v0.135c-0.258 1.994-1.855 3.818-4.432 3.818z"></path>
<path d="M133.719 24.008h4.054v-7.13c0-4.291 2.043-6.082 4.002-6.082 0.67 0 1.305 0.203 1.872 0.574l1.906-3.379c-0.824-0.828-2.009-1.216-3.143-1.216-1.923 0-3.865 1.149-4.603 3.193v-2.838h-4.088v16.879z"></path>
<path d="M154.589 24.346c1.254 0 2.49-0.27 3.126-0.507v-3.734c-0.567 0.27-1.512 0.608-2.387 0.608-1.099 0-1.906-0.473-1.906-2.095v-8.042h4.294v-3.447h-4.294v-7.13l-4.122 2.94v4.19h-2.834v3.447h2.765v8.769c0 3.075 2.010 5.001 5.36 5.001z"></path>
</symbol>
</defs>
</svg>
